<?xml version="1.0" encoding="UTF-8" standalone="no"?>
<svg
   viewBox="0 0 235 80"
   version="1.1"
   id="svg23"
   xmlns="http://www.w3.org/2000/svg"
   xmlns:svg="http://www.w3.org/2000/svg">
  <defs
     id="defs9">
    <linearGradient
       id="gradHoriz"
       x1="0%"
       y1="100%"
       x2="100%"
       y2="0%">
      <stop
         offset="0%"
         stop-color="#1E3A8A"
         id="stop2" />
      <stop
         offset="50%"
         stop-color="#3B82F6"
         id="stop4" />
      <stop
         offset="100%"
         stop-color="#FCD34D"
         id="stop6" />
    </linearGradient>
  </defs>
  <rect
     x="0"
     y="0"
     width="235"
     height="80"
     fill="#E0E7F1"
     id="rect11" />
  <rect
     x="15"
     y="10"
     width="14"
     height="50"
     rx="3"
     fill="url(#gradHoriz)"
     transform="rotate(-7 22 35)"
     id="rect13" />
  <path
     d="M35 60 L55 10 L75 60 L64 60 L55 38 L46 60 Z"
     fill="url(#gradHoriz)"
     id="path15" />
  <circle
     cx="36"
     cy="54"
     r="4"
     fill="#FCD34D"
     opacity="0.5"
     id="circle17" />
  <g
     aria-label="IMPERIAL"
     id="text19"
     style="font-weight:700;font-size:22px;font-family:Comfortaa;letter-spacing:2;fill:#1e3a8a">
    <path
       d="M 98.344,38 Q 97.86,38 97.53,37.67 97.2,37.34 97.2,36.856 V 21.962 q 0,-0.506 0.33,-0.814 0.33,-0.33 0.814,-0.33 0.506,0 0.814,0.33 0.33,0.308 0.33,0.814 v 14.894 q 0,0.484 -0.33,0.814 Q 98.85,38 98.344,38 Z"
       id="path27" />
    <path
       d="m 121.94802,20.818 q 0.484,0 0.814,0.33 0.33,0.33 0.33,0.814 v 14.894 q 0,0.484 -0.352,0.814 -0.33,0.33 -0.792,0.33 -0.484,0 -0.814,-0.33 -0.33,-0.33 -0.33,-0.814 V 25.922 l -5.324,10.846 q -0.374,0.572 -0.99,0.572 -0.726,0 -1.056,-0.682 l -5.258,-10.538 v 10.736 q 0,0.484 -0.33,0.814 -0.33,0.33 -0.814,0.33 -0.484,0 -0.814,-0.33 -0.33,-0.33 -0.33,-0.814 V 21.962 q 0,-0.484 0.33,-0.814 0.33,-0.33 0.814,-0.33 0.66,0 1.012,0.616 l 6.534,13.09 6.358,-13.09 q 0.352,-0.616 1.012,-0.616 z"
       id="path29" />
    <path
       d="m 130.63603,38 q -0.484,0 -0.814,-0.33 -0.33,-0.33 -0.33,-0.814 V 21.962 q 0,-0.506 0.33,-0.814 0.33,-0.33 0.814,-0.33 h 4.4 q 1.628,0 2.904,0.726 1.298,0.726 2.002,2.024 0.726,1.298 0.726,2.948 0,1.606 -0.726,2.86 -0.704,1.254 -2.002,1.958 -1.276,0.704 -2.904,0.704 h -3.256 v 4.818 q 0,0.484 -0.33,0.814 -0.308,0.33 -0.814,0.33 z m 4.4,-8.074 q 1.496,0 2.464,-0.946 0.968,-0.968 0.968,-2.464 0,-1.562 -0.968,-2.574 -0.968,-1.012 -2.464,-1.012 h -3.256 v 6.996 z"
       id="path31" />
    <path
       d="m 146.34201,38 q -0.484,0 -0.814,-0.33 -0.33,-0.33 -0.33,-0.814 V 21.962 q 0,-0.506 0.33,-0.814 0.33,-0.33 0.814,-0.33 h 9.944 q 0.506,0 0.814,0.308 0.308,0.286 0.308,0.77 0,0.462 -0.308,0.748 -0.308,0.286 -0.814,0.286 h -8.8 v 5.346 h 6.314 q 0.484,0 0.792,0.308 0.33,0.286 0.33,0.748 0,0.462 -0.33,0.77 -0.308,0.286 -0.792,0.286 h -6.314 v 5.5 h 8.8 q 0.506,0 0.814,0.286 0.308,0.286 0.308,0.748 0,0.484 -0.308,0.792 -0.308,0.286 -0.814,0.286 z"
       id="path33" />
    <path
       d="m 173.75203,36.24 q 0.22,0.352 0.22,0.726 0,0.44 -0.308,0.748 -0.286,0.286 -0.792,0.286 -0.638,0 -0.99,-0.55 l -3.784,-6.072 h -0.396 -2.816 v 5.478 q 0,0.484 -0.33,0.814 -0.308,0.33 -0.814,0.33 -0.484,0 -0.814,-0.33 -0.33,-0.33 -0.33,-0.814 V 21.962 q 0,-0.506 0.33,-0.814 0.33,-0.33 0.814,-0.33 h 3.96 q 1.628,0 2.904,0.682 1.298,0.682 2.002,1.914 0.726,1.232 0.726,2.816 0,1.562 -0.792,2.772 -0.792,1.21 -2.156,1.826 z m -6.05,-6.974 q 1.496,0 2.464,-0.836 0.968,-0.858 0.968,-2.2 0,-1.452 -0.968,-2.376 -0.968,-0.924 -2.464,-0.924 h -2.816 v 6.336 z"
       id="path35" />
    <path
       d="m 179.64602,38 q -0.484,0 -0.814,-0.33 -0.33,-0.33 -0.33,-0.814 V 21.962 q 0,-0.506 0.33,-0.814 0.33,-0.33 0.814,-0.33 0.506,0 0.814,0.33 0.33,0.308 0.33,0.814 v 14.894 q 0,0.484 -0.33,0.814 -0.308,0.33 -0.814,0.33 z"
       id="path37" />
    <path
       d="m 200.03804,36.394 q 0.11,0.286 0.11,0.484 0,0.462 -0.33,0.792 -0.33,0.33 -0.814,0.33 -0.33,0 -0.638,-0.176 -0.286,-0.198 -0.418,-0.528 l -1.232,-3.08 h -7.898 l -1.254,3.08 q -0.154,0.33 -0.44,0.528 -0.286,0.176 -0.616,0.176 -0.484,0 -0.814,-0.33 -0.308,-0.352 -0.308,-0.814 0,-0.22 0.11,-0.506 l 6.182,-14.762 q 0.33,-0.77 1.078,-0.77 0.792,0 1.078,0.77 z m -10.45,-4.07 h 6.358 l -3.146,-7.832 z"
       id="path39" />
    <path
       d="m 205.77802,38 q -0.484,0 -0.814,-0.33 -0.308,-0.33 -0.308,-0.814 V 21.962 q 0,-0.484 0.33,-0.814 0.33,-0.33 0.792,-0.33 0.484,0 0.814,0.33 0.33,0.33 0.33,0.814 v 13.75 h 7.964 q 0.484,0 0.814,0.33 0.33,0.33 0.33,0.814 0,0.484 -0.33,0.814 -0.33,0.33 -0.814,0.33 z"
       id="path41" />
  </g>
  <g
     aria-label="AUTOMATION"
     id="text21"
     style="font-size:11px;font-family:Comfortaa;letter-spacing:4;fill:#3b82f6">
    <path
       d="m 102.546,55.395 q 0.044,0.077 0.044,0.176 0,0.176 -0.132,0.308 -0.121,0.121 -0.297,0.121 -0.286,0 -0.407,-0.264 l -0.737,-1.782 H 96.76 l -0.737,1.782 Q 95.935,56 95.627,56 q -0.187,0 -0.308,-0.121 -0.11,-0.132 -0.11,-0.308 0,-0.11 0.033,-0.187 l 3.234,-7.678 q 0.121,-0.297 0.418,-0.297 0.297,0 0.407,0.297 z m -5.478,-2.178 h 3.652 l -1.826,-4.411 z"
       id="path44" />
    <path
       d="m 111.05599,56.176 q -0.99,0 -1.771,-0.385 -0.781,-0.385 -1.221,-1.067 -0.429,-0.693 -0.429,-1.562 v -5.324 q 0,-0.187 0.121,-0.308 0.121,-0.121 0.308,-0.121 0.187,0 0.308,0.121 0.121,0.121 0.121,0.308 v 5.324 q 0,0.638 0.319,1.144 0.33,0.495 0.913,0.781 0.583,0.275 1.331,0.275 0.737,0 1.309,-0.275 0.572,-0.286 0.891,-0.781 0.33,-0.506 0.33,-1.144 v -5.324 q 0,-0.187 0.121,-0.308 0.121,-0.121 0.308,-0.121 0.187,0 0.308,0.121 0.121,0.121 0.121,0.308 v 5.324 q 0,0.869 -0.44,1.562 -0.429,0.682 -1.199,1.067 -0.77,0.385 -1.749,0.385 z"
       id="path46" />
    <path
       d="m 126.188,47.409 q 0.176,0 0.286,0.11 0.11,0.11 0.11,0.286 0,0.165 -0.11,0.275 -0.11,0.11 -0.286,0.11 h -2.618 v 7.381 q 0,0.176 -0.121,0.308 -0.121,0.121 -0.308,0.121 -0.176,0 -0.308,-0.121 -0.121,-0.132 -0.121,-0.308 V 48.19 h -2.607 q -0.176,0 -0.286,-0.11 -0.11,-0.11 -0.11,-0.275 0,-0.176 0.11,-0.286 0.11,-0.11 0.286,-0.11 z"
       id="path48" />
    <path
       d="m 134.94,56.11 q -1.254,0 -2.255,-0.572 -1.001,-0.572 -1.573,-1.573 -0.561,-1.012 -0.561,-2.266 0,-1.254 0.561,-2.255 0.572,-1.001 1.573,-1.573 1.001,-0.572 2.255,-0.572 1.243,0 2.244,0.572 1.012,0.572 1.573,1.573 0.572,1.001 0.572,2.255 0,1.254 -0.572,2.266 -0.561,1.001 -1.573,1.573 -1.001,0.572 -2.244,0.572 z m 0,-0.814 q 1.001,0 1.804,-0.473 0.814,-0.473 1.276,-1.287 0.462,-0.825 0.462,-1.837 0,-1.001 -0.462,-1.815 -0.462,-0.825 -1.276,-1.298 -0.803,-0.473 -1.804,-0.473 -1.012,0 -1.826,0.473 -0.803,0.473 -1.265,1.298 -0.462,0.814 -0.462,1.815 0,1.012 0.462,1.837 0.462,0.814 1.265,1.287 0.814,0.473 1.826,0.473 z"
       id="path50" />
    <path
       d="m 153.273,47.409 q 0.176,0 0.297,0.121 0.121,0.121 0.121,0.308 v 7.733 q 0,0.176 -0.121,0.308 -0.121,0.121 -0.297,0.121 -0.187,0 -0.319,-0.121 -0.121,-0.132 -0.121,-0.308 v -6.226 l -3.058,6.248 q -0.132,0.209 -0.374,0.209 -0.275,0 -0.396,-0.264 l -3.047,-6.094 v 6.127 q 0,0.176 -0.121,0.308 Q 145.716,56 145.529,56 145.353,56 145.221,55.879 145.1,55.747 145.1,55.571 v -7.733 q 0,-0.187 0.121,-0.308 0.132,-0.121 0.308,-0.121 0.253,0 0.385,0.22 l 3.52,6.996 3.454,-6.996 q 0.132,-0.22 0.385,-0.22 z"
       id="path52" />
    <path
       d="m 166.33701,55.395 q 0.044,0.077 0.044,0.176 0,0.176 -0.132,0.308 -0.121,0.121 -0.297,0.121 -0.286,0 -0.407,-0.264 l -0.737,-1.782 h -4.257 l -0.737,1.782 q -0.088,0.264 -0.396,0.264 -0.187,0 -0.308,-0.121 -0.11,-0.132 -0.11,-0.308 0,-0.11 0.033,-0.187 l 3.234,-7.678 q 0.121,-0.297 0.418,-0.297 0.297,0 0.407,0.297 z m -5.478,-2.178 h 3.652 l -1.826,-4.411 z"
       id="path54" />
    <path
       d="m 176.552,47.409 q 0.176,0 0.286,0.11 0.11,0.11 0.11,0.286 0,0.165 -0.11,0.275 -0.11,0.11 -0.286,0.11 h -2.618 v 7.381 q 0,0.176 -0.121,0.308 -0.121,0.121 -0.308,0.121 -0.176,0 -0.308,-0.121 -0.121,-0.132 -0.121,-0.308 V 48.19 h -2.607 q -0.176,0 -0.286,-0.11 -0.11,-0.11 -0.11,-0.275 0,-0.176 0.11,-0.286 0.11,-0.11 0.286,-0.11 z"
       id="path56" />
    <path
       d="m 182.64201,56 q -0.176,0 -0.308,-0.121 -0.121,-0.132 -0.121,-0.308 v -7.733 q 0,-0.187 0.121,-0.308 0.132,-0.121 0.308,-0.121 0.187,0 0.308,0.121 0.121,0.121 0.121,0.308 v 7.733 q 0,0.176 -0.121,0.308 -0.121,0.121 -0.308,0.121 z"
       id="path58" />
    <path
       d="m 193.24201,56.11 q -1.254,0 -2.255,-0.572 -1.001,-0.572 -1.573,-1.573 -0.561,-1.012 -0.561,-2.266 0,-1.254 0.561,-2.255 0.572,-1.001 1.573,-1.573 1.001,-0.572 2.255,-0.572 1.243,0 2.244,0.572 1.012,0.572 1.573,1.573 0.572,1.001 0.572,2.255 0,1.254 -0.572,2.266 -0.561,1.001 -1.573,1.573 -1.001,0.572 -2.244,0.572 z m 0,-0.814 q 1.001,0 1.804,-0.473 0.814,-0.473 1.276,-1.287 0.462,-0.825 0.462,-1.837 0,-1.001 -0.462,-1.815 -0.462,-0.825 -1.276,-1.298 -0.803,-0.473 -1.804,-0.473 -1.012,0 -1.826,0.473 -0.803,0.473 -1.265,1.298 -0.462,0.814 -0.462,1.815 0,1.012 0.462,1.837 0.462,0.814 1.265,1.287 0.814,0.473 1.826,0.473 z"
       id="path60" />
    <path
       d="m 203.831,56 q -0.187,0 -0.308,-0.121 -0.121,-0.121 -0.121,-0.308 v -7.733 q 0,-0.187 0.121,-0.308 0.121,-0.121 0.308,-0.121 0.198,0 0.33,0.154 l 5.258,6.908 v -6.633 q 0,-0.187 0.121,-0.308 0.132,-0.121 0.308,-0.121 0.187,0 0.308,0.121 0.121,0.121 0.121,0.308 v 7.733 q 0,0.176 -0.121,0.308 -0.121,0.121 -0.308,0.121 -0.22,0 -0.319,-0.143 l -5.269,-6.908 v 6.622 q 0,0.176 -0.121,0.308 Q 204.018,56 203.831,56 Z"
       id="path62" />
  </g>
</svg>
